#N canvas -8 -8 1366 725 12;
#X declare -stdpath mrpeach;
#X obj 106 44 declare -stdpath mrpeach;
#X obj 39 151 print;
#X obj 253 200 routeOSC /1/push2;
#X obj 403 200 routeOSC /1/push3;
#X obj 553 200 routeOSC /1/push4;
#X obj 703 200 routeOSC /1/push5;
#X obj 853 200 routeOSC /1/push6;
#X obj 1003 200 routeOSC /1/push7;
#X obj 1153 200 routeOSC /1/push8;
#X obj 1303 200 routeOSC /1/push9;
#X obj 1453 200 routeOSC /1/push10;
#X obj 1603 200 routeOSC /1/push11;
#X obj 1753 200 routeOSC /1/push12;
#X obj 107 411 noteout;
#X msg 107 369 60;
#X msg 143 369 127;
#X obj 183 411 noteout;
#X msg 183 369 60;
#X msg 219 369 0;
#X obj 253 411 noteout;
#X msg 289 369 127;
#X obj 329 411 noteout;
#X msg 365 369 0;
#X msg 253 369 61;
#X msg 329 369 61;
#X obj 403 411 noteout;
#X msg 439 369 127;
#X obj 479 411 noteout;
#X msg 515 369 0;
#X msg 403 369 62;
#X msg 479 369 62;
#X obj 553 411 noteout;
#X msg 589 369 127;
#X obj 629 411 noteout;
#X msg 665 369 0;
#X msg 553 369 63;
#X msg 629 369 63;
#X obj 703 411 noteout;
#X msg 739 369 127;
#X obj 779 411 noteout;
#X msg 815 369 0;
#X obj 853 411 noteout;
#X msg 889 369 127;
#X obj 929 411 noteout;
#X msg 965 369 0;
#X msg 703 369 64;
#X msg 779 369 64;
#X msg 853 369 65;
#X msg 929 369 65;
#X obj 1003 411 noteout;
#X msg 1039 369 127;
#X obj 1079 411 noteout;
#X msg 1115 369 0;
#X obj 1153 411 noteout;
#X msg 1189 369 127;
#X obj 1229 411 noteout;
#X msg 1265 369 0;
#X obj 1303 411 noteout;
#X msg 1339 369 127;
#X obj 1379 411 noteout;
#X msg 1415 369 0;
#X obj 1453 411 noteout;
#X msg 1489 369 127;
#X obj 1529 411 noteout;
#X msg 1565 369 0;
#X obj 1603 411 noteout;
#X msg 1639 369 127;
#X obj 1679 411 noteout;
#X msg 1715 369 0;
#X obj 1753 411 noteout;
#X msg 1789 369 127;
#X obj 1829 411 noteout;
#X msg 1865 369 0;
#X msg 1003 369 66;
#X msg 1079 369 66;
#X msg 1153 369 67;
#X msg 1229 369 67;
#X msg 1303 369 68;
#X msg 1379 369 68;
#X msg 1453 369 69;
#X msg 1529 369 69;
#X msg 1603 369 70;
#X msg 1679 369 70;
#X msg 1753 369 71;
#X msg 1829 369 71;
#X obj 107 132 unpackOSC;
#X obj 107 200 routeOSC /1/push1;
#X obj 107 93 udpreceive 8080;
#X obj 107 282 counter;
#X obj 107 240 sel 1 0;
#X obj 107 313 sel 1;
#X obj 253 280 counter;
#X obj 253 240 sel 1 0;
#X obj 253 320 sel 1;
#X obj 403 280 counter;
#X obj 403 240 sel 1 0;
#X obj 403 320 sel 1;
#X obj 553 280 counter;
#X obj 553 240 sel 1 0;
#X obj 553 320 sel 1;
#X obj 703 282 counter;
#X obj 703 240 sel 1 0;
#X obj 703 313 sel 1;
#X obj 853 280 counter;
#X obj 853 240 sel 1 0;
#X obj 853 320 sel 1;
#X obj 1003 280 counter;
#X obj 1003 240 sel 1 0;
#X obj 1003 320 sel 1;
#X obj 1153 280 counter;
#X obj 1153 240 sel 1 0;
#X obj 1153 320 sel 1;
#X obj 1303 280 counter;
#X obj 1303 240 sel 1 0;
#X obj 1303 320 sel 1;
#X obj 1453 280 counter;
#X obj 1453 240 sel 1 0;
#X obj 1453 320 sel 1;
#X obj 1603 280 counter;
#X obj 1603 240 sel 1 0;
#X obj 1603 320 sel 1;
#X obj 1753 280 counter;
#X obj 1753 240 sel 1 0;
#X obj 1753 320 sel 1;
#X floatatom 45 321 5 0 0 0 - - -;
#X floatatom 202 309 5 0 0 0 - - -;
#X floatatom 357 314 5 0 0 0 - - -;
#X text 332 47 Es necesario tener las siguientes librerias: *mrpeach
-> permite la conexion udp *cyclone -> libreria basica \, que contiene
la funcion counter *Es necesario que el puerto sea igual al de processing
;
#X connect 2 0 92 0;
#X connect 3 0 95 0;
#X connect 4 0 98 0;
#X connect 5 0 101 0;
#X connect 6 0 104 0;
#X connect 7 0 107 0;
#X connect 8 0 110 0;
#X connect 9 0 113 0;
#X connect 10 0 116 0;
#X connect 11 0 119 0;
#X connect 12 0 122 0;
#X connect 14 0 13 0;
#X connect 15 0 13 1;
#X connect 17 0 16 0;
#X connect 18 0 16 1;
#X connect 20 0 19 1;
#X connect 22 0 21 1;
#X connect 23 0 19 0;
#X connect 24 0 21 0;
#X connect 26 0 25 1;
#X connect 28 0 27 1;
#X connect 29 0 25 0;
#X connect 30 0 27 0;
#X connect 32 0 31 1;
#X connect 34 0 33 1;
#X connect 35 0 31 0;
#X connect 36 0 33 0;
#X connect 38 0 37 1;
#X connect 40 0 39 1;
#X connect 42 0 41 1;
#X connect 44 0 43 1;
#X connect 45 0 37 0;
#X connect 46 0 39 0;
#X connect 47 0 41 0;
#X connect 48 0 43 0;
#X connect 50 0 49 1;
#X connect 52 0 51 1;
#X connect 54 0 53 1;
#X connect 56 0 55 1;
#X connect 58 0 57 1;
#X connect 60 0 59 1;
#X connect 62 0 61 1;
#X connect 64 0 63 1;
#X connect 66 0 65 1;
#X connect 68 0 67 1;
#X connect 70 0 69 1;
#X connect 72 0 71 1;
#X connect 73 0 49 0;
#X connect 74 0 51 0;
#X connect 75 0 53 0;
#X connect 76 0 55 0;
#X connect 77 0 57 0;
#X connect 78 0 59 0;
#X connect 79 0 61 0;
#X connect 80 0 63 0;
#X connect 81 0 65 0;
#X connect 82 0 67 0;
#X connect 83 0 69 0;
#X connect 84 0 71 0;
#X connect 85 0 1 0;
#X connect 85 0 3 0;
#X connect 85 0 4 0;
#X connect 85 0 5 0;
#X connect 85 0 6 0;
#X connect 85 0 7 0;
#X connect 85 0 8 0;
#X connect 85 0 9 0;
#X connect 85 0 10 0;
#X connect 85 0 11 0;
#X connect 85 0 12 0;
#X connect 85 0 2 0;
#X connect 85 0 86 0;
#X connect 86 0 89 0;
#X connect 87 0 85 0;
#X connect 88 0 90 0;
#X connect 88 0 124 0;
#X connect 89 0 88 0;
#X connect 89 1 88 3;
#X connect 89 1 17 0;
#X connect 89 1 18 0;
#X connect 90 0 14 0;
#X connect 90 0 15 0;
#X connect 91 0 93 0;
#X connect 91 0 125 0;
#X connect 92 0 91 0;
#X connect 92 1 91 3;
#X connect 92 1 24 0;
#X connect 92 1 22 0;
#X connect 93 0 23 0;
#X connect 93 0 20 0;
#X connect 94 0 96 0;
#X connect 94 0 126 0;
#X connect 95 0 94 0;
#X connect 95 1 94 3;
#X connect 95 1 30 0;
#X connect 95 1 28 0;
#X connect 96 0 26 0;
#X connect 96 0 29 0;
#X connect 97 0 99 0;
#X connect 98 0 97 0;
#X connect 98 1 97 3;
#X connect 98 1 36 0;
#X connect 98 1 34 0;
#X connect 99 0 35 0;
#X connect 99 0 32 0;
#X connect 100 0 102 0;
#X connect 101 0 100 0;
#X connect 101 1 100 3;
#X connect 101 1 46 0;
#X connect 101 1 40 0;
#X connect 102 0 45 0;
#X connect 102 0 38 0;
#X connect 103 0 105 0;
#X connect 104 0 103 0;
#X connect 104 1 103 3;
#X connect 104 1 48 0;
#X connect 104 1 44 0;
#X connect 105 0 47 0;
#X connect 106 0 108 0;
#X connect 107 0 106 0;
#X connect 107 1 106 3;
#X connect 107 1 74 0;
#X connect 107 1 52 0;
#X connect 108 0 73 0;
#X connect 108 0 50 0;
#X connect 109 0 111 0;
#X connect 110 0 109 0;
#X connect 110 1 109 3;
#X connect 110 1 76 0;
#X connect 110 1 56 0;
#X connect 111 0 75 0;
#X connect 111 0 54 0;
#X connect 112 0 114 0;
#X connect 113 0 112 0;
#X connect 113 1 112 3;
#X connect 113 1 78 0;
#X connect 113 1 60 0;
#X connect 114 0 77 0;
#X connect 114 0 58 0;
#X connect 115 0 117 0;
#X connect 116 0 115 0;
#X connect 116 1 115 3;
#X connect 116 1 80 0;
#X connect 116 1 64 0;
#X connect 117 0 79 0;
#X connect 117 0 62 0;
#X connect 118 0 120 0;
#X connect 119 0 118 0;
#X connect 119 1 118 3;
#X connect 119 1 82 0;
#X connect 119 1 68 0;
#X connect 120 0 81 0;
#X connect 120 0 66 0;
#X connect 121 0 123 0;
#X connect 122 0 121 0;
#X connect 122 1 121 3;
#X connect 122 1 72 0;
#X connect 122 1 84 0;
#X connect 123 0 83 0;
#X connect 123 0 70 0;
