#N canvas 676 0 681 312 10;
#X obj 232 77 metro 500;
#X msg 194 18 0;
#X msg 265 27 1;
#X obj 232 146 bng 15 250 50 0 empty empty empty 17 7 0 10 -262144
-1 -1;
#X floatatom 382 37 5 0 0 0 - - -;
#X connect 0 0 3 0;
#X connect 1 0 0 0;
#X connect 2 0 0 0;
#X connect 4 0 0 1;
