#N canvas -8 -8 1366 685 10;
#X obj 165 57 metro 500;
#X msg 165 11 1;
#X msg 101 40 0;
#X floatatom 216 7 5 0 0 0 - - -;
#X obj 165 114 bng 15 250 50 0 empty empty empty 17 7 0 10 -262144
-1 -1;
#X obj 165 159 counter;
#X obj 194 114 bng 15 250 50 0 empty empty empty 17 7 0 10 -262144
-1 -1;
#X obj 165 205 % 4;
#X obj 165 257 + 1;
#X floatatom 165 306 1 0 0 0 - - -;
#X obj 217 222 sel 0 1 2 3;
#X obj 217 266 bng 15 250 50 0 empty empty empty 17 7 0 10 -262144
-1 -1;
#X obj 232 266 bng 15 250 50 0 empty empty empty 17 7 0 10 -262144
-1 -1;
#X obj 248 266 bng 15 250 50 0 empty empty empty 17 7 0 10 -262144
-1 -1;
#X obj 264 266 bng 15 250 50 0 empty empty empty 17 7 0 10 -262144
-1 -1;
#X connect 0 0 4 0;
#X connect 1 0 0 0;
#X connect 2 0 0 0;
#X connect 3 0 0 1;
#X connect 4 0 5 0;
#X connect 5 0 7 0;
#X connect 6 0 5 3;
#X connect 7 0 8 0;
#X connect 7 0 10 0;
#X connect 8 0 9 0;
#X connect 10 0 11 0;
#X connect 10 1 12 0;
#X connect 10 2 13 0;
#X connect 10 3 14 0;
