#N canvas 0 0 1366 725 10;
#X obj 67 377 key;
#X obj 67 423 sel 113;
#X obj 67 468 bng 15 250 50 0 empty empty empty 17 7 0 10 -262144 -1
-1;
#X obj 338 -47 noteout;
#X text 195 -127 MIDI note number;
#X text 309 -127 volumen o velocidad;
#X msg 229 -106 65;
#X msg 357 -106 127;
#X text 444 -127 canal MIDI;
#X msg 471 -106 1;
#X text 258 -107 => DO 5ta-8va;
#X msg 105 558 127;
#X obj 67 607 noteout;
#X text 139 348 DO;
#X obj 517 377 key;
#X obj 517 468 bng 15 250 50 0 empty empty empty 17 7 0 10 -262144
-1 -1;
#X msg 567 563 127;
#X obj 517 606 noteout;
#X text 587 348 MI;
#X msg 517 563 64;
#X obj 955 377 key;
#X obj 955 468 bng 15 250 50 0 empty empty empty 17 7 0 10 -262144
-1 -1;
#X msg 1005 563 127;
#X obj 955 606 noteout;
#X msg 67 558 60;
#X text 413 -54 por defecto trae el canal 1;
#X obj 162 423 sel 113;
#X obj 162 468 bng 15 250 50 0 empty empty empty 17 7 0 10 -262144
-1 -1;
#X obj 162 607 noteout;
#X text 219 424 => q;
#X msg 162 558 60;
#X msg 212 558 0;
#X obj 162 377 keyup;
#X obj 607 468 bng 15 250 50 0 empty empty empty 17 7 0 10 -262144
-1 -1;
#X obj 607 606 noteout;
#X msg 607 563 64;
#X text 607 377 comment;
#X obj 1049 468 bng 15 250 50 0 empty empty empty 17 7 0 10 -262144
-1 -1;
#X obj 1049 604 noteout;
#X text 1020 348 SOL;
#X msg 1049 561 67;
#X obj 607 377 keyup;
#X msg 657 563 0;
#X obj 1049 377 keyup;
#X msg 1099 561 0;
#X obj 67 496 counter;
#X obj 67 527 sel 1;
#X obj 517 496 counter;
#X obj 517 527 sel 1;
#X obj 955 496 counter;
#X obj 955 527 sel 1;
#X obj 187 87 key;
#X obj 187 178 bng 15 250 50 0 empty empty empty 17 7 0 10 -262144
-1 -1;
#X msg 225 268 127;
#X obj 187 317 noteout;
#X obj 282 178 bng 15 250 50 0 empty empty empty 17 7 0 10 -262144
-1 -1;
#X obj 282 317 noteout;
#X msg 332 268 0;
#X obj 282 87 keyup;
#X obj 187 206 counter;
#X obj 187 237 sel 1;
#X text 259 58 DO#;
#X obj 698 171 key;
#X floatatom 698 212 5 0 0 0 - - -;
#X obj 187 133 sel 50;
#X obj 282 133 sel 50;
#X text 339 134 => 2;
#X msg 187 268 61;
#X msg 282 268 61;
#X obj 287 377 key;
#X obj 287 468 bng 15 250 50 0 empty empty empty 17 7 0 10 -262144
-1 -1;
#X msg 325 558 127;
#X obj 287 607 noteout;
#X obj 382 468 bng 15 250 50 0 empty empty empty 17 7 0 10 -262144
-1 -1;
#X obj 382 607 noteout;
#X msg 432 558 0;
#X obj 382 377 keyup;
#X obj 287 496 counter;
#X obj 287 527 sel 1;
#X text 349 348 RE;
#X obj 287 423 sel 119;
#X obj 382 423 sel 119;
#X obj 517 423 sel 101;
#X obj 607 423 sel 101;
#X text 664 424 => e;
#X obj 735 377 key;
#X obj 735 468 bng 15 250 50 0 empty empty empty 17 7 0 10 -262144
-1 -1;
#X msg 785 563 127;
#X obj 735 606 noteout;
#X obj 829 468 bng 15 250 50 0 empty empty empty 17 7 0 10 -262144
-1 -1;
#X obj 829 604 noteout;
#X obj 829 377 keyup;
#X msg 879 561 0;
#X obj 735 496 counter;
#X obj 735 527 sel 1;
#X obj 956 422 sel 116;
#X obj 1049 423 sel 116;
#X text 1107 424 => t;
#X msg 287 558 62;
#X msg 382 558 62;
#X text 800 347 FA;
#X obj 735 423 sel 114;
#X obj 829 423 sel 114;
#X msg 829 561 65;
#X msg 735 563 65;
#X text 439 424 => w;
#X text 887 424 => r;
#X obj 1385 377 key;
#X obj 1385 468 bng 15 250 50 0 empty empty empty 17 7 0 10 -262144
-1 -1;
#X msg 1435 563 127;
#X obj 1385 606 noteout;
#X obj 1479 468 bng 15 250 50 0 empty empty empty 17 7 0 10 -262144
-1 -1;
#X obj 1479 604 noteout;
#X obj 1479 377 keyup;
#X msg 1529 561 0;
#X obj 1385 496 counter;
#X obj 1385 527 sel 1;
#X obj 1165 377 key;
#X obj 1165 468 bng 15 250 50 0 empty empty empty 17 7 0 10 -262144
-1 -1;
#X msg 1215 563 127;
#X obj 1165 606 noteout;
#X obj 1259 468 bng 15 250 50 0 empty empty empty 17 7 0 10 -262144
-1 -1;
#X obj 1259 604 noteout;
#X obj 1259 377 keyup;
#X msg 1309 561 0;
#X obj 1165 496 counter;
#X obj 1165 527 sel 1;
#X text 1230 347 LA;
#X text 1450 348 SI;
#X obj 1165 423 sel 121;
#X obj 1259 423 sel 121;
#X text 1317 424 => y;
#X msg 955 563 67;
#X msg 1165 563 69;
#X msg 1259 561 69;
#X obj 1386 422 sel 117;
#X obj 1479 423 sel 117;
#X msg 1385 563 71;
#X msg 1479 561 71;
#X text 1537 424 => u;
#X obj 397 87 key;
#X obj 397 178 bng 15 250 50 0 empty empty empty 17 7 0 10 -262144
-1 -1;
#X msg 435 268 127;
#X obj 397 317 noteout;
#X obj 492 178 bng 15 250 50 0 empty empty empty 17 7 0 10 -262144
-1 -1;
#X obj 492 317 noteout;
#X msg 542 268 0;
#X obj 492 87 keyup;
#X obj 397 206 counter;
#X obj 397 237 sel 1;
#X text 469 58 RE#;
#X obj 847 87 key;
#X obj 847 178 bng 15 250 50 0 empty empty empty 17 7 0 10 -262144
-1 -1;
#X msg 885 268 127;
#X obj 847 317 noteout;
#X obj 942 178 bng 15 250 50 0 empty empty empty 17 7 0 10 -262144
-1 -1;
#X obj 942 317 noteout;
#X msg 992 268 0;
#X obj 942 87 keyup;
#X obj 847 206 counter;
#X obj 847 237 sel 1;
#X text 919 58 FA#;
#X obj 1057 87 key;
#X obj 1057 178 bng 15 250 50 0 empty empty empty 17 7 0 10 -262144
-1 -1;
#X msg 1095 268 127;
#X obj 1057 317 noteout;
#X obj 1152 178 bng 15 250 50 0 empty empty empty 17 7 0 10 -262144
-1 -1;
#X obj 1152 317 noteout;
#X msg 1202 268 0;
#X obj 1152 87 keyup;
#X obj 1057 206 counter;
#X obj 1057 237 sel 1;
#X obj 1277 87 key;
#X obj 1277 178 bng 15 250 50 0 empty empty empty 17 7 0 10 -262144
-1 -1;
#X msg 1315 268 127;
#X obj 1277 317 noteout;
#X obj 1372 178 bng 15 250 50 0 empty empty empty 17 7 0 10 -262144
-1 -1;
#X obj 1372 317 noteout;
#X msg 1422 268 0;
#X obj 1372 87 keyup;
#X obj 1277 206 counter;
#X obj 1277 237 sel 1;
#X text 1129 58 SOL#;
#X text 1349 58 LA#;
#X obj 397 133 sel 51;
#X obj 492 133 sel 51;
#X text 549 134 => 3;
#X obj 847 133 sel 53;
#X obj 942 133 sel 53;
#X obj 1057 133 sel 54;
#X obj 1152 133 sel 54;
#X obj 1277 133 sel 55;
#X obj 1372 133 sel 55;
#X text 999 134 => 5;
#X text 1209 134 => 6;
#X text 1429 134 => 7;
#X msg 397 268 63;
#X msg 492 268 63;
#X msg 847 268 66;
#X msg 942 268 66;
#X msg 1057 268 68;
#X msg 1152 268 68;
#X msg 1277 268 70;
#X msg 1372 268 70;
#X obj 121 28 inlet;
#X obj 191 29 outlet;
#X connect 0 0 1 0;
#X connect 1 0 2 0;
#X connect 2 0 45 0;
#X connect 6 0 3 0;
#X connect 7 0 3 1;
#X connect 9 0 3 2;
#X connect 11 0 12 1;
#X connect 14 0 82 0;
#X connect 15 0 47 0;
#X connect 16 0 17 1;
#X connect 19 0 17 0;
#X connect 20 0 95 0;
#X connect 21 0 49 0;
#X connect 22 0 23 1;
#X connect 24 0 12 0;
#X connect 26 0 27 0;
#X connect 27 0 31 0;
#X connect 27 0 30 0;
#X connect 27 0 45 3;
#X connect 30 0 28 0;
#X connect 31 0 28 1;
#X connect 32 0 26 0;
#X connect 33 0 42 0;
#X connect 33 0 35 0;
#X connect 33 0 47 3;
#X connect 35 0 34 0;
#X connect 37 0 44 0;
#X connect 37 0 40 0;
#X connect 37 0 49 3;
#X connect 40 0 38 0;
#X connect 41 0 83 0;
#X connect 42 0 34 1;
#X connect 43 0 96 0;
#X connect 44 0 38 1;
#X connect 45 0 46 0;
#X connect 46 0 24 0;
#X connect 46 0 11 0;
#X connect 47 0 48 0;
#X connect 48 0 19 0;
#X connect 48 0 16 0;
#X connect 49 0 50 0;
#X connect 50 0 22 0;
#X connect 50 0 132 0;
#X connect 51 0 64 0;
#X connect 52 0 59 0;
#X connect 53 0 54 1;
#X connect 55 0 57 0;
#X connect 55 0 68 0;
#X connect 55 0 59 3;
#X connect 57 0 56 1;
#X connect 58 0 65 0;
#X connect 59 0 60 0;
#X connect 60 0 67 0;
#X connect 60 0 53 0;
#X connect 62 0 63 0;
#X connect 64 0 52 0;
#X connect 65 0 55 0;
#X connect 67 0 54 0;
#X connect 68 0 56 0;
#X connect 69 0 80 0;
#X connect 70 0 77 0;
#X connect 71 0 72 1;
#X connect 73 0 75 0;
#X connect 73 0 99 0;
#X connect 73 0 77 3;
#X connect 75 0 74 1;
#X connect 76 0 81 0;
#X connect 77 0 78 0;
#X connect 78 0 98 0;
#X connect 78 0 71 0;
#X connect 80 0 70 0;
#X connect 81 0 73 0;
#X connect 82 0 15 0;
#X connect 83 0 33 0;
#X connect 85 0 101 0;
#X connect 86 0 93 0;
#X connect 87 0 88 1;
#X connect 89 0 92 0;
#X connect 89 0 103 0;
#X connect 89 0 93 3;
#X connect 91 0 102 0;
#X connect 92 0 90 1;
#X connect 93 0 94 0;
#X connect 94 0 104 0;
#X connect 94 0 87 0;
#X connect 95 0 21 0;
#X connect 96 0 37 0;
#X connect 98 0 72 0;
#X connect 99 0 74 0;
#X connect 101 0 86 0;
#X connect 102 0 89 0;
#X connect 103 0 90 0;
#X connect 104 0 88 0;
#X connect 107 0 135 0;
#X connect 108 0 115 0;
#X connect 109 0 110 1;
#X connect 111 0 114 0;
#X connect 111 0 138 0;
#X connect 111 0 115 3;
#X connect 113 0 136 0;
#X connect 114 0 112 1;
#X connect 115 0 116 0;
#X connect 116 0 137 0;
#X connect 116 0 109 0;
#X connect 117 0 129 0;
#X connect 118 0 125 0;
#X connect 119 0 120 1;
#X connect 121 0 124 0;
#X connect 121 0 134 0;
#X connect 121 0 125 3;
#X connect 123 0 130 0;
#X connect 124 0 122 1;
#X connect 125 0 126 0;
#X connect 126 0 133 0;
#X connect 126 0 119 0;
#X connect 129 0 118 0;
#X connect 130 0 121 0;
#X connect 132 0 23 0;
#X connect 133 0 120 0;
#X connect 134 0 122 0;
#X connect 135 0 108 0;
#X connect 136 0 111 0;
#X connect 137 0 110 0;
#X connect 138 0 112 0;
#X connect 140 0 184 0;
#X connect 141 0 148 0;
#X connect 142 0 143 1;
#X connect 144 0 146 0;
#X connect 144 0 197 0;
#X connect 144 0 148 3;
#X connect 146 0 145 1;
#X connect 147 0 185 0;
#X connect 148 0 149 0;
#X connect 149 0 196 0;
#X connect 149 0 142 0;
#X connect 151 0 187 0;
#X connect 152 0 159 0;
#X connect 153 0 154 1;
#X connect 155 0 157 0;
#X connect 155 0 199 0;
#X connect 155 0 159 3;
#X connect 157 0 156 1;
#X connect 158 0 188 0;
#X connect 159 0 160 0;
#X connect 160 0 198 0;
#X connect 160 0 153 0;
#X connect 162 0 189 0;
#X connect 163 0 170 0;
#X connect 164 0 165 1;
#X connect 166 0 168 0;
#X connect 166 0 201 0;
#X connect 166 0 170 3;
#X connect 168 0 167 1;
#X connect 169 0 190 0;
#X connect 170 0 171 0;
#X connect 171 0 200 0;
#X connect 171 0 164 0;
#X connect 172 0 191 0;
#X connect 173 0 180 0;
#X connect 174 0 175 1;
#X connect 176 0 178 0;
#X connect 176 0 203 0;
#X connect 176 0 180 3;
#X connect 178 0 177 1;
#X connect 179 0 192 0;
#X connect 180 0 181 0;
#X connect 181 0 202 0;
#X connect 181 0 174 0;
#X connect 184 0 141 0;
#X connect 185 0 144 0;
#X connect 187 0 152 0;
#X connect 188 0 155 0;
#X connect 189 0 163 0;
#X connect 190 0 166 0;
#X connect 191 0 173 0;
#X connect 192 0 176 0;
#X connect 196 0 143 0;
#X connect 197 0 145 0;
#X connect 198 0 154 0;
#X connect 199 0 156 0;
#X connect 200 0 165 0;
#X connect 201 0 167 0;
#X connect 202 0 175 0;
#X connect 203 0 177 0;
