#N canvas -8 -8 1366 725 12;
#X declare -stdpath mrpeach;
#X obj 106 44 declare -stdpath mrpeach;
#X obj 107 93 udpreceive 8000;
#X obj 39 151 print;
#X obj 253 200 routeOSC /1/push2;
#X obj 403 200 routeOSC /1/push3;
#X obj 553 200 routeOSC /1/push4;
#X obj 703 200 routeOSC /1/push5;
#X obj 853 200 routeOSC /1/push6;
#X obj 1003 200 routeOSC /1/push7;
#X obj 1153 200 routeOSC /1/push8;
#X obj 1303 200 routeOSC /1/push9;
#X obj 1453 200 routeOSC /1/push10;
#X obj 1603 200 routeOSC /1/push11;
#X obj 1753 200 routeOSC /1/push12;
#X obj 107 326 noteout;
#X msg 107 284 60;
#X msg 143 284 127;
#X obj 183 326 noteout;
#X obj 107 234 sel 1;
#X msg 183 284 60;
#X msg 219 284 0;
#X obj 253 326 noteout;
#X msg 289 284 127;
#X obj 329 326 noteout;
#X obj 253 234 sel 1;
#X msg 365 284 0;
#X msg 253 284 61;
#X msg 329 284 61;
#X obj 403 326 noteout;
#X msg 439 284 127;
#X obj 479 326 noteout;
#X obj 403 234 sel 1;
#X msg 515 284 0;
#X msg 403 284 62;
#X msg 479 284 62;
#X obj 553 326 noteout;
#X msg 589 284 127;
#X obj 629 326 noteout;
#X obj 553 234 sel 1;
#X msg 665 284 0;
#X msg 553 284 63;
#X msg 629 284 63;
#X obj 703 326 noteout;
#X msg 739 284 127;
#X obj 779 326 noteout;
#X obj 703 234 sel 1;
#X msg 815 284 0;
#X obj 853 326 noteout;
#X msg 889 284 127;
#X obj 929 326 noteout;
#X obj 853 234 sel 1;
#X msg 965 284 0;
#X msg 703 284 64;
#X msg 779 284 64;
#X msg 853 284 65;
#X msg 929 284 65;
#X obj 1003 326 noteout;
#X msg 1039 284 127;
#X obj 1079 326 noteout;
#X obj 1003 234 sel 1;
#X msg 1115 284 0;
#X obj 1153 326 noteout;
#X msg 1189 284 127;
#X obj 1229 326 noteout;
#X obj 1153 234 sel 1;
#X msg 1265 284 0;
#X obj 1303 326 noteout;
#X msg 1339 284 127;
#X obj 1379 326 noteout;
#X obj 1303 234 sel 1;
#X msg 1415 284 0;
#X obj 1453 326 noteout;
#X msg 1489 284 127;
#X obj 1529 326 noteout;
#X obj 1453 234 sel 1;
#X msg 1565 284 0;
#X obj 1603 326 noteout;
#X msg 1639 284 127;
#X obj 1679 326 noteout;
#X obj 1603 234 sel 1;
#X msg 1715 284 0;
#X obj 1753 326 noteout;
#X msg 1789 284 127;
#X obj 1829 326 noteout;
#X obj 1753 234 sel 1;
#X msg 1865 284 0;
#X msg 1003 284 66;
#X msg 1079 284 66;
#X msg 1153 284 67;
#X msg 1229 284 67;
#X msg 1303 284 68;
#X msg 1379 284 68;
#X msg 1453 284 69;
#X msg 1529 284 69;
#X msg 1603 284 70;
#X msg 1679 284 70;
#X msg 1753 284 71;
#X msg 1829 284 71;
#X obj 107 132 unpackOSC;
#X obj 107 200 routeOSC /1/push1;
#X msg 88 460 connect 192.168.1.61 9000;
#X obj 88 527 udpsend;
#X msg 99 489 disconnect;
#X msg 340 2925 send /1/push1 1;
#X obj 340 2965 packOSC;
#X obj 148 546 tgl 15 0 empty empty empty 17 7 0 10 -262144 -1 -1 0
1;
#X msg 476 2925 send /1/push1 0;
#X msg 358 2739 send /1/push2 1;
#X msg 494 2739 send /1/push2 0;
#X msg 375 2549 send /1/push3 1;
#X msg 511 2549 send /1/push3 0;
#X msg 392 2361 send /1/push4 1;
#X msg 528 2361 send /1/push4 0;
#X msg 410 2179 send /1/push5 1;
#X msg 546 2179 send /1/push5 0;
#X msg 427 1999 send /1/push6 1;
#X msg 563 1999 send /1/push6 0;
#X msg 444 1817 send /1/push7 1;
#X msg 580 1817 send /1/push7 0;
#X msg 461 1617 send /1/push8 1;
#X msg 597 1617 send /1/push8 0;
#X msg 479 1417 send /1/push9 1;
#X msg 615 1417 send /1/push9 0;
#X msg 496 1227 send /1/push10 1;
#X msg 632 1227 send /1/push10 0;
#X msg 513 1042 send /1/push11 1;
#X msg 529 847 send /1/push12 1;
#X msg 665 847 send /1/push12 0;
#X msg 649 1042 send /1/push11 0;
#X obj 340 2872 noteout;
#X msg 340 2830 60;
#X msg 376 2830 127;
#X obj 416 2872 noteout;
#X msg 416 2830 60;
#X msg 452 2830 0;
#X obj 357 2686 noteout;
#X msg 393 2644 127;
#X obj 433 2686 noteout;
#X msg 469 2644 0;
#X msg 357 2644 61;
#X msg 433 2644 61;
#X obj 374 2496 noteout;
#X msg 410 2454 127;
#X obj 450 2496 noteout;
#X msg 486 2454 0;
#X msg 374 2454 62;
#X msg 450 2454 62;
#X obj 391 2308 noteout;
#X msg 427 2266 127;
#X obj 467 2308 noteout;
#X msg 503 2266 0;
#X msg 391 2266 63;
#X msg 467 2266 63;
#X obj 409 2126 noteout;
#X msg 445 2084 127;
#X obj 485 2126 noteout;
#X msg 521 2084 0;
#X obj 426 1946 noteout;
#X msg 462 1904 127;
#X obj 502 1946 noteout;
#X msg 538 1904 0;
#X msg 409 2084 64;
#X msg 485 2084 64;
#X msg 426 1904 65;
#X msg 502 1904 65;
#X obj 443 1764 noteout;
#X msg 479 1722 127;
#X obj 519 1764 noteout;
#X msg 555 1722 0;
#X obj 460 1564 noteout;
#X msg 496 1522 127;
#X obj 536 1564 noteout;
#X msg 572 1522 0;
#X obj 478 1364 noteout;
#X msg 514 1322 127;
#X obj 554 1364 noteout;
#X msg 590 1322 0;
#X obj 495 1174 noteout;
#X msg 531 1132 127;
#X obj 571 1174 noteout;
#X msg 607 1132 0;
#X obj 512 989 noteout;
#X msg 548 947 127;
#X obj 588 989 noteout;
#X msg 624 947 0;
#X obj 529 794 noteout;
#X msg 565 752 127;
#X obj 605 794 noteout;
#X msg 443 1722 66;
#X msg 519 1722 66;
#X msg 460 1522 67;
#X msg 536 1522 67;
#X msg 478 1322 68;
#X msg 554 1322 68;
#X msg 495 1132 69;
#X msg 571 1132 69;
#X msg 512 947 70;
#X msg 588 947 70;
#X msg 605 752 71;
#X obj 340 2800 sel 1;
#X obj 340 2776 tgl 15 0 empty empty empty 17 7 0 10 -262144 -1 -1
0 1;
#X obj 357 2605 sel 1;
#X obj 357 2581 tgl 15 0 empty empty empty 17 7 0 10 -262144 -1 -1
0 1;
#X obj 374 2415 sel 1;
#X obj 374 2391 tgl 15 0 empty empty empty 17 7 0 10 -262144 -1 -1
0 1;
#X obj 391 2227 sel 1;
#X obj 391 2203 tgl 15 0 empty empty empty 17 7 0 10 -262144 -1 -1
0 1;
#X obj 409 2045 sel 1;
#X obj 409 2021 tgl 15 0 empty empty empty 17 7 0 10 -262144 -1 -1
0 1;
#X obj 426 1865 sel 1;
#X obj 426 1841 tgl 15 0 empty empty empty 17 7 0 10 -262144 -1 -1
0 1;
#X obj 443 1683 sel 1;
#X obj 443 1659 tgl 15 0 empty empty empty 17 7 0 10 -262144 -1 -1
0 1;
#X obj 460 1483 sel 1;
#X obj 460 1459 tgl 15 0 empty empty empty 17 7 0 10 -262144 -1 -1
0 1;
#X obj 478 1283 sel 1;
#X obj 478 1259 tgl 15 0 empty empty empty 17 7 0 10 -262144 -1 -1
0 1;
#X obj 495 1093 sel 1;
#X obj 495 1069 tgl 15 0 empty empty empty 17 7 0 10 -262144 -1 -1
0 1;
#X obj 512 908 sel 1;
#X obj 512 884 tgl 15 0 empty empty empty 17 7 0 10 -262144 -1 -1 0
1;
#X obj 529 713 sel 1;
#X obj 529 689 tgl 15 0 empty empty empty 17 7 0 10 -262144 -1 -1 0
1;
#X msg 641 752 0;
#X msg 529 752 71;
#X obj 340 488 tgl 15 0 empty empty empty 17 7 0 10 -262144 -1 -1 0
1;
#X text 336 464 SOL;
#X msg 340 588 1;
#X msg 393 589 3;
#X obj 340 654 sel 1 2 3 4 5 6 7 8 9 10 11 12;
#X msg 441 590 5;
#X text 483 591 acorde;
#X text 650 417 1 => DO;
#X text 650 499 5 => MI;
#X text 650 519 6 => FA;
#X text 650 539 7 => #FA;
#X text 650 438 2 => #DO;
#X text 650 459 3 => RE;
#X text 650 559 8 => SOL;
#X text 650 579 9 => #SOL;
#X text 650 599 10 => LA;
#X text 650 619 11 => #LA;
#X text 650 644 12 => SI;
#X text 650 480 4 => #RE;
#X connect 1 0 98 0;
#X connect 3 0 24 0;
#X connect 4 0 31 0;
#X connect 5 0 38 0;
#X connect 6 0 45 0;
#X connect 7 0 50 0;
#X connect 8 0 59 0;
#X connect 9 0 64 0;
#X connect 10 0 69 0;
#X connect 11 0 74 0;
#X connect 12 0 79 0;
#X connect 13 0 84 0;
#X connect 15 0 14 0;
#X connect 16 0 14 1;
#X connect 18 0 15 0;
#X connect 18 0 16 0;
#X connect 18 1 19 0;
#X connect 18 1 20 0;
#X connect 19 0 17 0;
#X connect 20 0 17 1;
#X connect 22 0 21 1;
#X connect 24 0 26 0;
#X connect 24 0 22 0;
#X connect 24 1 27 0;
#X connect 24 1 25 0;
#X connect 25 0 23 1;
#X connect 26 0 21 0;
#X connect 27 0 23 0;
#X connect 29 0 28 1;
#X connect 31 0 33 0;
#X connect 31 0 29 0;
#X connect 31 1 34 0;
#X connect 31 1 32 0;
#X connect 32 0 30 1;
#X connect 33 0 28 0;
#X connect 34 0 30 0;
#X connect 36 0 35 1;
#X connect 38 0 40 0;
#X connect 38 0 36 0;
#X connect 38 1 41 0;
#X connect 38 1 39 0;
#X connect 39 0 37 1;
#X connect 40 0 35 0;
#X connect 41 0 37 0;
#X connect 43 0 42 1;
#X connect 45 0 52 0;
#X connect 45 0 43 0;
#X connect 45 1 53 0;
#X connect 45 1 46 0;
#X connect 46 0 44 1;
#X connect 48 0 47 1;
#X connect 50 0 54 0;
#X connect 50 0 48 0;
#X connect 50 1 55 0;
#X connect 50 1 51 0;
#X connect 51 0 49 1;
#X connect 52 0 42 0;
#X connect 53 0 44 0;
#X connect 54 0 47 0;
#X connect 55 0 49 0;
#X connect 57 0 56 1;
#X connect 59 0 86 0;
#X connect 59 0 57 0;
#X connect 59 1 87 0;
#X connect 59 1 60 0;
#X connect 60 0 58 1;
#X connect 62 0 61 1;
#X connect 64 0 88 0;
#X connect 64 0 62 0;
#X connect 64 1 89 0;
#X connect 64 1 65 0;
#X connect 65 0 63 1;
#X connect 67 0 66 1;
#X connect 69 0 90 0;
#X connect 69 0 67 0;
#X connect 69 1 91 0;
#X connect 69 1 70 0;
#X connect 70 0 68 1;
#X connect 72 0 71 1;
#X connect 74 0 92 0;
#X connect 74 0 72 0;
#X connect 74 1 93 0;
#X connect 74 1 75 0;
#X connect 75 0 73 1;
#X connect 77 0 76 1;
#X connect 79 0 94 0;
#X connect 79 0 77 0;
#X connect 79 1 95 0;
#X connect 79 1 80 0;
#X connect 80 0 78 1;
#X connect 82 0 81 1;
#X connect 84 0 96 0;
#X connect 84 0 82 0;
#X connect 84 1 97 0;
#X connect 84 1 85 0;
#X connect 85 0 83 1;
#X connect 86 0 56 0;
#X connect 87 0 58 0;
#X connect 88 0 61 0;
#X connect 89 0 63 0;
#X connect 90 0 66 0;
#X connect 91 0 68 0;
#X connect 92 0 71 0;
#X connect 93 0 73 0;
#X connect 94 0 76 0;
#X connect 95 0 78 0;
#X connect 96 0 81 0;
#X connect 97 0 83 0;
#X connect 98 0 2 0;
#X connect 98 0 4 0;
#X connect 98 0 5 0;
#X connect 98 0 6 0;
#X connect 98 0 7 0;
#X connect 98 0 8 0;
#X connect 98 0 9 0;
#X connect 98 0 10 0;
#X connect 98 0 11 0;
#X connect 98 0 12 0;
#X connect 98 0 13 0;
#X connect 98 0 3 0;
#X connect 98 0 99 0;
#X connect 99 0 18 0;
#X connect 100 0 101 0;
#X connect 101 0 105 0;
#X connect 102 0 101 0;
#X connect 103 0 104 0;
#X connect 104 0 101 0;
#X connect 106 0 104 0;
#X connect 107 0 104 0;
#X connect 108 0 104 0;
#X connect 109 0 104 0;
#X connect 110 0 104 0;
#X connect 111 0 104 0;
#X connect 112 0 104 0;
#X connect 113 0 104 0;
#X connect 114 0 104 0;
#X connect 115 0 104 0;
#X connect 116 0 104 0;
#X connect 117 0 104 0;
#X connect 118 0 104 0;
#X connect 119 0 104 0;
#X connect 120 0 104 0;
#X connect 121 0 104 0;
#X connect 122 0 104 0;
#X connect 123 0 104 0;
#X connect 124 0 104 0;
#X connect 125 0 104 0;
#X connect 126 0 104 0;
#X connect 127 0 104 0;
#X connect 128 0 104 0;
#X connect 130 0 129 0;
#X connect 131 0 129 1;
#X connect 133 0 132 0;
#X connect 134 0 132 1;
#X connect 136 0 135 1;
#X connect 138 0 137 1;
#X connect 139 0 135 0;
#X connect 140 0 137 0;
#X connect 142 0 141 1;
#X connect 144 0 143 1;
#X connect 145 0 141 0;
#X connect 146 0 143 0;
#X connect 148 0 147 1;
#X connect 150 0 149 1;
#X connect 151 0 147 0;
#X connect 152 0 149 0;
#X connect 154 0 153 1;
#X connect 156 0 155 1;
#X connect 158 0 157 1;
#X connect 160 0 159 1;
#X connect 161 0 153 0;
#X connect 162 0 155 0;
#X connect 163 0 157 0;
#X connect 164 0 159 0;
#X connect 166 0 165 1;
#X connect 168 0 167 1;
#X connect 170 0 169 1;
#X connect 172 0 171 1;
#X connect 174 0 173 1;
#X connect 176 0 175 1;
#X connect 178 0 177 1;
#X connect 180 0 179 1;
#X connect 182 0 181 1;
#X connect 184 0 183 1;
#X connect 186 0 185 1;
#X connect 188 0 165 0;
#X connect 189 0 167 0;
#X connect 190 0 169 0;
#X connect 191 0 171 0;
#X connect 192 0 173 0;
#X connect 193 0 175 0;
#X connect 194 0 177 0;
#X connect 195 0 179 0;
#X connect 196 0 181 0;
#X connect 197 0 183 0;
#X connect 198 0 187 0;
#X connect 199 0 130 0;
#X connect 199 0 103 0;
#X connect 199 0 131 0;
#X connect 199 1 133 0;
#X connect 199 1 134 0;
#X connect 199 1 106 0;
#X connect 200 0 199 0;
#X connect 201 0 139 0;
#X connect 201 0 136 0;
#X connect 201 0 107 0;
#X connect 201 1 140 0;
#X connect 201 1 138 0;
#X connect 201 1 108 0;
#X connect 202 0 201 0;
#X connect 203 0 145 0;
#X connect 203 0 142 0;
#X connect 203 0 109 0;
#X connect 203 1 146 0;
#X connect 203 1 144 0;
#X connect 203 1 110 0;
#X connect 204 0 203 0;
#X connect 205 0 151 0;
#X connect 205 0 148 0;
#X connect 205 0 111 0;
#X connect 205 1 152 0;
#X connect 205 1 150 0;
#X connect 205 1 112 0;
#X connect 206 0 205 0;
#X connect 207 0 161 0;
#X connect 207 0 154 0;
#X connect 207 0 113 0;
#X connect 207 1 162 0;
#X connect 207 1 156 0;
#X connect 207 1 114 0;
#X connect 208 0 207 0;
#X connect 209 0 163 0;
#X connect 209 0 158 0;
#X connect 209 0 115 0;
#X connect 209 1 164 0;
#X connect 209 1 160 0;
#X connect 209 1 116 0;
#X connect 210 0 209 0;
#X connect 211 0 188 0;
#X connect 211 0 166 0;
#X connect 211 0 117 0;
#X connect 211 1 118 0;
#X connect 211 1 189 0;
#X connect 211 1 168 0;
#X connect 212 0 211 0;
#X connect 213 0 190 0;
#X connect 213 0 170 0;
#X connect 213 0 119 0;
#X connect 213 1 191 0;
#X connect 213 1 172 0;
#X connect 213 1 120 0;
#X connect 214 0 213 0;
#X connect 215 0 192 0;
#X connect 215 0 174 0;
#X connect 215 0 121 0;
#X connect 215 1 193 0;
#X connect 215 1 176 0;
#X connect 215 1 122 0;
#X connect 216 0 215 0;
#X connect 217 0 194 0;
#X connect 217 0 178 0;
#X connect 217 0 123 0;
#X connect 217 1 195 0;
#X connect 217 1 180 0;
#X connect 217 1 124 0;
#X connect 218 0 217 0;
#X connect 219 0 196 0;
#X connect 219 0 182 0;
#X connect 219 0 125 0;
#X connect 219 1 197 0;
#X connect 219 1 184 0;
#X connect 219 1 128 0;
#X connect 220 0 219 0;
#X connect 221 0 224 0;
#X connect 221 0 186 0;
#X connect 221 0 126 0;
#X connect 221 1 198 0;
#X connect 221 1 223 0;
#X connect 221 1 127 0;
#X connect 222 0 221 0;
#X connect 224 0 185 0;
#X connect 225 0 227 0;
#X connect 225 0 228 0;
#X connect 225 0 230 0;
#X connect 227 0 229 0;
#X connect 228 0 229 0;
#X connect 229 0 200 0;
#X connect 229 1 202 0;
#X connect 229 2 204 0;
#X connect 229 3 206 0;
#X connect 229 4 208 0;
#X connect 229 5 210 0;
#X connect 229 6 212 0;
#X connect 229 7 214 0;
#X connect 229 8 216 0;
#X connect 229 9 218 0;
#X connect 229 10 220 0;
#X connect 229 11 222 0;
#X connect 230 0 229 0;
