#N canvas -8 -8 1366 725 12;
#X obj 99 3763 udpsend;
#X msg 185 516 disconnect;
#X msg 340 3705 send /1/push1 1;
#X obj 340 3745 packOSC;
#X obj 267 518 tgl 15 0 empty empty empty 17 7 0 10 -262144 -1 -1 0
1;
#X msg 476 3705 send /1/push1 0;
#X msg 359 3519 send /1/push2 1;
#X msg 495 3519 send /1/push2 0;
#X msg 377 3329 send /1/push3 1;
#X msg 513 3329 send /1/push3 0;
#X msg 395 3141 send /1/push4 1;
#X msg 531 3141 send /1/push4 0;
#X msg 413 2959 send /1/push5 1;
#X msg 549 2959 send /1/push5 0;
#X msg 431 2779 send /1/push6 1;
#X msg 567 2779 send /1/push6 0;
#X msg 450 2597 send /1/push7 1;
#X msg 586 2597 send /1/push7 0;
#X msg 468 2397 send /1/push8 1;
#X msg 604 2397 send /1/push8 0;
#X msg 486 2197 send /1/push9 1;
#X msg 622 2197 send /1/push9 0;
#X msg 504 2007 send /1/push10 1;
#X msg 640 2007 send /1/push10 0;
#X msg 522 1822 send /1/push11 1;
#X msg 540 1624 send /1/push12 1;
#X msg 676 1624 send /1/push12 0;
#X msg 658 1822 send /1/push11 0;
#X obj 340 3652 noteout;
#X msg 340 3610 60;
#X msg 376 3610 127;
#X obj 416 3652 noteout;
#X msg 416 3610 60;
#X msg 452 3610 0;
#X obj 358 3466 noteout;
#X msg 394 3424 127;
#X obj 434 3466 noteout;
#X msg 470 3424 0;
#X msg 358 3424 61;
#X msg 434 3424 61;
#X obj 376 3276 noteout;
#X msg 412 3234 127;
#X obj 452 3276 noteout;
#X msg 488 3234 0;
#X msg 376 3234 62;
#X msg 452 3234 62;
#X obj 394 3088 noteout;
#X msg 430 3046 127;
#X obj 470 3088 noteout;
#X msg 506 3046 0;
#X msg 394 3046 63;
#X msg 470 3046 63;
#X obj 412 2906 noteout;
#X msg 448 2864 127;
#X obj 488 2906 noteout;
#X msg 524 2864 0;
#X obj 430 2726 noteout;
#X msg 466 2684 127;
#X obj 506 2726 noteout;
#X msg 542 2684 0;
#X msg 412 2864 64;
#X msg 488 2864 64;
#X msg 430 2684 65;
#X msg 506 2684 65;
#X obj 449 2544 noteout;
#X msg 485 2502 127;
#X obj 525 2544 noteout;
#X msg 561 2502 0;
#X obj 467 2344 noteout;
#X msg 503 2302 127;
#X obj 543 2344 noteout;
#X msg 579 2302 0;
#X obj 485 2144 noteout;
#X msg 521 2102 127;
#X obj 561 2144 noteout;
#X msg 597 2102 0;
#X obj 503 1954 noteout;
#X msg 539 1912 127;
#X obj 579 1954 noteout;
#X msg 615 1912 0;
#X obj 521 1769 noteout;
#X msg 557 1727 127;
#X obj 597 1769 noteout;
#X msg 633 1727 0;
#X obj 540 1571 noteout;
#X msg 576 1529 127;
#X obj 616 1571 noteout;
#X msg 449 2502 66;
#X msg 525 2502 66;
#X msg 467 2302 67;
#X msg 543 2302 67;
#X msg 485 2102 68;
#X msg 561 2102 68;
#X msg 503 1912 69;
#X msg 579 1912 69;
#X msg 521 1727 70;
#X msg 597 1727 70;
#X msg 616 1529 71;
#X obj 340 3580 sel 1;
#X obj 340 3556 tgl 15 0 empty empty empty 17 7 0 10 -262144 -1 -1
0 1;
#X obj 358 3385 sel 1;
#X obj 358 3361 tgl 15 0 empty empty empty 17 7 0 10 -262144 -1 -1
0 1;
#X obj 376 3195 sel 1;
#X obj 376 3171 tgl 15 0 empty empty empty 17 7 0 10 -262144 -1 -1
0 1;
#X obj 394 3007 sel 1;
#X obj 394 2983 tgl 15 0 empty empty empty 17 7 0 10 -262144 -1 -1
0 1;
#X obj 412 2825 sel 1;
#X obj 412 2801 tgl 15 0 empty empty empty 17 7 0 10 -262144 -1 -1
1 1;
#X obj 430 2645 sel 1;
#X obj 430 2621 tgl 15 0 empty empty empty 17 7 0 10 -262144 -1 -1
0 1;
#X obj 449 2463 sel 1;
#X obj 449 2439 tgl 15 0 empty empty empty 17 7 0 10 -262144 -1 -1
0 1;
#X obj 467 2263 sel 1;
#X obj 467 2239 tgl 15 0 empty empty empty 17 7 0 10 -262144 -1 -1
0 1;
#X obj 485 2063 sel 1;
#X obj 485 2039 tgl 15 0 empty empty empty 17 7 0 10 -262144 -1 -1
0 1;
#X obj 503 1873 sel 1;
#X obj 503 1849 tgl 15 0 empty empty empty 17 7 0 10 -262144 -1 -1
0 1;
#X obj 521 1688 sel 1;
#X obj 521 1664 tgl 15 0 empty empty empty 17 7 0 10 -262144 -1 -1
0 1;
#X obj 540 1490 sel 1;
#X obj 540 1466 tgl 15 0 empty empty empty 17 7 0 10 -262144 -1 -1
0 1;
#X msg 652 1529 0;
#X msg 540 1529 71;
#X text 500 6 1 => DO;
#X text 500 88 5 => MI;
#X text 500 108 6 => FA;
#X text 500 128 7 => #FA;
#X text 500 27 2 => #DO;
#X text 500 48 3 => RE;
#X text 500 148 8 => SOL;
#X text 500 168 9 => #SOL;
#X text 500 188 10 => LA;
#X text 500 208 11 => #LA;
#X text 500 228 12 => SI;
#X text 500 69 4 => #RE;
#X text 326 229 negras => 1;
#X text 326 248 blancas => 1/2;
#X text 326 210 redondas => 1/4;
#X msg 350 593 3;
#X obj 558 1356 noteout;
#X msg 594 1314 127;
#X obj 634 1356 noteout;
#X msg 670 1314 0;
#X obj 576 1166 noteout;
#X msg 612 1124 127;
#X obj 652 1166 noteout;
#X msg 688 1124 0;
#X obj 594 981 noteout;
#X msg 630 939 127;
#X obj 670 981 noteout;
#X msg 706 939 0;
#X obj 612 786 noteout;
#X msg 648 744 127;
#X obj 688 786 noteout;
#X obj 558 1275 sel 1;
#X obj 558 1251 tgl 15 0 empty empty empty 17 7 0 10 -262144 -1 -1
0 1;
#X obj 576 1085 sel 1;
#X obj 576 1061 tgl 15 0 empty empty empty 17 7 0 10 -262144 -1 -1
0 1;
#X obj 594 900 sel 1;
#X obj 594 876 tgl 15 0 empty empty empty 17 7 0 10 -262144 -1 -1 0
1;
#X obj 612 705 sel 1;
#X obj 612 681 tgl 15 0 empty empty empty 17 7 0 10 -262144 -1 -1 0
1;
#X msg 724 744 0;
#X msg 559 1409 send /2/push1 1;
#X msg 695 1409 send /2/push1 0;
#X msg 577 1219 send /2/push3 1;
#X msg 713 1219 send /2/push3 0;
#X msg 595 1034 send /2/push5 1;
#X msg 731 1034 send /2/push5 0;
#X msg 612 839 send /2/push6 1;
#X msg 748 839 send /2/push6 0;
#X obj 340 654 sel 1 2 3 4 5 6 7 8 9 10 11 12 13 15 17 18;
#X text 590 6 13 => DO;
#X text 590 48 15 => RE;
#X text 590 88 17 => MI;
#X text 590 108 18 => FA;
#X text 530 -22 Escala de SOL;
#X msg 428 593 15;
#X obj 133 221 n;
#X obj 193 221 bl;
#X obj 253 221 re;
#X text 326 267 corcheas => 2;
#X text 326 286 semicorcheas => 4;
#X obj 136 119 hsl 200 15 40 250 0 0 empty empty empty -2 -8 0 10 -262144
-1 -1 0 1;
#X text 115 102 40;
#X text 313 102 250;
#X obj 133 142 i;
#X floatatom 133 181 3 0 0 0 - - -;
#X text 166 184 BPM;
#X text 103 43 Metronomo;
#X obj 350 551 tgl 15 0 empty empty empty 17 7 0 10 -262144 -1 -1 0
1;
#X text 6 -12 Santiago Florian Bustamante;
#X text 501 254 Las notas de 13 en adelante \, son agudas. Hay notas
que no han sido asigandas debido a que para tocar la canción no son
necesarias \, dado el caso que las necesite \, deben de ser implementadas.
;
#X obj 25 267 tgl 15 0 empty empty empty 17 7 0 10 -262144 -1 -1 0
1;
#X obj 78 267 tgl 15 0 empty empty empty 17 7 0 10 -262144 -1 -1 0
1;
#X obj 133 267 tgl 15 0 empty empty empty 17 7 0 10 -262144 -1 -1 0
1;
#X obj 193 267 tgl 15 0 empty empty empty 17 7 0 10 -262144 -1 -1 0
1;
#X obj 253 267 tgl 15 0 empty empty empty 17 7 0 10 -262144 -1 -1 0
1;
#X obj 386 551 tgl 15 0 empty empty empty 17 7 0 10 -262144 -1 -1 0
1;
#X obj 78 221 c;
#X obj 25 221 sm;
#X obj 428 494 bl;
#X obj 428 551 tgl 15 0 empty empty empty 17 7 0 10 -262144 -1 -1 0
1;
#X msg 470 593 3;
#X msg 548 593 15;
#X obj 470 551 tgl 15 0 empty empty empty 17 7 0 10 -262144 -1 -1 0
1;
#X obj 506 551 tgl 15 0 empty empty empty 17 7 0 10 -262144 -1 -1 0
1;
#X obj 548 494 bl;
#X obj 548 551 tgl 15 0 empty empty empty 17 7 0 10 -262144 -1 -1 0
1;
#X floatatom 813 3722 5 0 0 0 - - -;
#X obj 64 583 bng 15 250 50 0 empty empty empty 17 7 0 10 -262144 -1
-1;
#X obj 795 3629 bng 15 250 50 0 empty empty empty 17 7 0 10 -262144
-1 -1;
#X msg 558 1314 72;
#X msg 634 1314 72;
#X msg 576 1124 74;
#X msg 652 1124 74;
#X text 590 27 14* => #DO;
#X text 590 69 16* => #RE;
#X text 590 128 19* => #FA;
#X text 590 148 20* => SOL;
#X text 590 168 21* => #SOL;
#X text 590 188 22* => LA;
#X text 590 208 23* => #LA;
#X text 590 228 24* => SI;
#X msg 594 939 76;
#X msg 670 939 76;
#X msg 612 744 77;
#X msg 688 744 77;
#X msg -2 516 connect 192.168.43.1 9000;
#X obj 588 551 tgl 15 0 empty empty empty 17 7 0 10 -262144 -1 -1 0
1;
#X obj 588 494 n_p;
#X msg 588 593 17;
#X obj 628 551 tgl 15 0 empty empty empty 17 7 0 10 -262144 -1 -1 0
1;
#X obj 668 551 tgl 15 0 empty empty empty 17 7 0 10 -262144 -1 -1 0
1;
#X msg 668 593 17;
#X obj 708 551 tgl 15 0 empty empty empty 17 7 0 10 -262144 -1 -1 0
1;
#X msg 628 593 18;
#X msg 708 593 18;
#X obj 350 494 c;
#X obj 386 494 c;
#X obj 470 494 c;
#X obj 506 494 c;
#X obj 628 494 c;
#X obj 668 494 c;
#X obj 708 494 c;
#X text 37 557 play song;
#X text 248 484 conected;
#X obj 748 551 tgl 15 0 empty empty empty 17 7 0 10 -262144 -1 -1 0
1;
#X obj 748 494 c;
#X obj 788 551 tgl 15 0 empty empty empty 17 7 0 10 -262144 -1 -1 0
1;
#X obj 788 494 c;
#X obj 828 551 tgl 15 0 empty empty empty 17 7 0 10 -262144 -1 -1 0
1;
#X msg 748 593 17;
#X msg 788 593 13;
#X msg 828 593 10;
#X obj 868 551 tgl 15 0 empty empty empty 17 7 0 10 -262144 -1 -1 0
1;
#X obj 908 551 tgl 15 0 empty empty empty 17 7 0 10 -262144 -1 -1 0
1;
#X obj 948 551 tgl 15 0 empty empty empty 17 7 0 10 -262144 -1 -1 0
1;
#X obj 988 551 tgl 15 0 empty empty empty 17 7 0 10 -262144 -1 -1 0
1;
#X obj 868 494 n;
#X obj 908 494 n;
#X obj 828 494 bl;
#X obj 948 494 c;
#X obj 988 494 c;
#X msg 868 593 10;
#X obj 1028 551 tgl 15 0 empty empty empty 17 7 0 10 -262144 -1 -1
0 1;
#X obj 1028 494 bl_p;
#X obj 1068 551 tgl 15 0 empty empty empty 17 7 0 10 -262144 -1 -1
0 1;
#X obj 1108 551 tgl 15 0 empty empty empty 17 7 0 10 -262144 -1 -1
0 1;
#X obj 1148 551 tgl 15 0 empty empty empty 17 7 0 10 -262144 -1 -1
0 1;
#X obj 1188 551 tgl 15 0 empty empty empty 17 7 0 10 -262144 -1 -1
0 1;
#X obj 1068 494 n;
#X obj 1108 494 n;
#X obj 1148 494 c;
#X obj 1188 494 c;
#X msg 1188 593 8;
#X obj 1228 551 tgl 15 0 empty empty empty 17 7 0 10 -262144 -1 -1
1 1;
#X obj 1228 494 bl_p;
#X obj 350 324 sel 0 1 2 3 4 5 6 7 8 9 10 11 12 13 14 15 16 17 18 19
20 21 22;
#X msg 386 593 10;
#X msg 506 593 10;
#X msg 908 593 3;
#X msg 948 593 6;
#X msg 988 593 8;
#X msg 1028 593 10;
#X msg 1068 593 10;
#X msg 1108 593 3;
#X msg 1148 593 6;
#X msg 1228 593 5;
#X msg 350 454 200;
#X msg 386 454 200;
#X msg 428 454 200;
#X msg 470 454 200;
#X msg 506 454 200;
#X msg 548 454 200;
#X msg 588 454 200;
#X msg 628 454 200;
#X msg 668 454 200;
#X msg 708 454 200;
#X msg 748 454 200;
#X msg 788 454 200;
#X msg 828 454 200;
#X msg 868 454 200;
#X msg 908 454 200;
#X msg 948 454 200;
#X msg 988 454 200;
#X msg 1028 454 200;
#X msg 1068 454 200;
#X msg 1108 454 200;
#X msg 1148 454 200;
#X msg 1188 454 200;
#X msg 1228 454 200;
#X obj 813 3698 counter 23;
#X connect 0 0 4 0;
#X connect 1 0 0 0;
#X connect 2 0 3 0;
#X connect 3 0 0 0;
#X connect 5 0 3 0;
#X connect 6 0 3 0;
#X connect 7 0 3 0;
#X connect 8 0 3 0;
#X connect 9 0 3 0;
#X connect 10 0 3 0;
#X connect 11 0 3 0;
#X connect 12 0 3 0;
#X connect 13 0 3 0;
#X connect 14 0 3 0;
#X connect 15 0 3 0;
#X connect 16 0 3 0;
#X connect 17 0 3 0;
#X connect 18 0 3 0;
#X connect 19 0 3 0;
#X connect 20 0 3 0;
#X connect 21 0 3 0;
#X connect 22 0 3 0;
#X connect 23 0 3 0;
#X connect 24 0 3 0;
#X connect 25 0 3 0;
#X connect 26 0 3 0;
#X connect 27 0 3 0;
#X connect 29 0 28 0;
#X connect 30 0 28 1;
#X connect 32 0 31 0;
#X connect 32 0 212 0;
#X connect 33 0 31 1;
#X connect 35 0 34 1;
#X connect 37 0 36 1;
#X connect 38 0 34 0;
#X connect 39 0 36 0;
#X connect 39 0 212 0;
#X connect 41 0 40 1;
#X connect 43 0 42 1;
#X connect 44 0 40 0;
#X connect 45 0 42 0;
#X connect 45 0 212 0;
#X connect 47 0 46 1;
#X connect 49 0 48 1;
#X connect 50 0 46 0;
#X connect 51 0 48 0;
#X connect 51 0 212 0;
#X connect 53 0 52 1;
#X connect 55 0 54 1;
#X connect 57 0 56 1;
#X connect 59 0 58 1;
#X connect 60 0 52 0;
#X connect 61 0 54 0;
#X connect 61 0 212 0;
#X connect 62 0 56 0;
#X connect 63 0 58 0;
#X connect 63 0 212 0;
#X connect 65 0 64 1;
#X connect 67 0 66 1;
#X connect 69 0 68 1;
#X connect 71 0 70 1;
#X connect 73 0 72 1;
#X connect 75 0 74 1;
#X connect 77 0 76 1;
#X connect 79 0 78 1;
#X connect 81 0 80 1;
#X connect 83 0 82 1;
#X connect 85 0 84 1;
#X connect 87 0 64 0;
#X connect 88 0 66 0;
#X connect 88 0 212 0;
#X connect 89 0 68 0;
#X connect 90 0 70 0;
#X connect 90 0 212 0;
#X connect 91 0 72 0;
#X connect 92 0 74 0;
#X connect 92 0 212 0;
#X connect 93 0 76 0;
#X connect 94 0 78 0;
#X connect 94 0 212 0;
#X connect 95 0 80 0;
#X connect 96 0 82 0;
#X connect 96 0 212 0;
#X connect 97 0 86 0;
#X connect 97 0 212 0;
#X connect 98 0 29 0;
#X connect 98 0 2 0;
#X connect 98 0 30 0;
#X connect 98 1 32 0;
#X connect 98 1 33 0;
#X connect 98 1 5 0;
#X connect 99 0 98 0;
#X connect 100 0 38 0;
#X connect 100 0 35 0;
#X connect 100 0 6 0;
#X connect 100 1 39 0;
#X connect 100 1 37 0;
#X connect 100 1 7 0;
#X connect 101 0 100 0;
#X connect 102 0 44 0;
#X connect 102 0 41 0;
#X connect 102 0 8 0;
#X connect 102 1 45 0;
#X connect 102 1 43 0;
#X connect 102 1 9 0;
#X connect 103 0 102 0;
#X connect 104 0 50 0;
#X connect 104 0 47 0;
#X connect 104 0 10 0;
#X connect 104 1 51 0;
#X connect 104 1 49 0;
#X connect 104 1 11 0;
#X connect 105 0 104 0;
#X connect 106 0 60 0;
#X connect 106 0 53 0;
#X connect 106 0 12 0;
#X connect 106 1 61 0;
#X connect 106 1 55 0;
#X connect 106 1 13 0;
#X connect 107 0 106 0;
#X connect 108 0 62 0;
#X connect 108 0 57 0;
#X connect 108 0 14 0;
#X connect 108 1 63 0;
#X connect 108 1 59 0;
#X connect 108 1 15 0;
#X connect 109 0 108 0;
#X connect 110 0 87 0;
#X connect 110 0 65 0;
#X connect 110 0 16 0;
#X connect 110 1 17 0;
#X connect 110 1 88 0;
#X connect 110 1 67 0;
#X connect 111 0 110 0;
#X connect 112 0 89 0;
#X connect 112 0 69 0;
#X connect 112 0 18 0;
#X connect 112 1 90 0;
#X connect 112 1 71 0;
#X connect 112 1 19 0;
#X connect 113 0 112 0;
#X connect 114 0 91 0;
#X connect 114 0 73 0;
#X connect 114 0 20 0;
#X connect 114 1 92 0;
#X connect 114 1 75 0;
#X connect 114 1 21 0;
#X connect 115 0 114 0;
#X connect 116 0 93 0;
#X connect 116 0 77 0;
#X connect 116 0 22 0;
#X connect 116 1 94 0;
#X connect 116 1 79 0;
#X connect 116 1 23 0;
#X connect 117 0 116 0;
#X connect 118 0 95 0;
#X connect 118 0 81 0;
#X connect 118 0 24 0;
#X connect 118 1 96 0;
#X connect 118 1 83 0;
#X connect 118 1 27 0;
#X connect 119 0 118 0;
#X connect 120 0 123 0;
#X connect 120 0 85 0;
#X connect 120 0 25 0;
#X connect 120 1 97 0;
#X connect 120 1 122 0;
#X connect 120 1 26 0;
#X connect 121 0 120 0;
#X connect 123 0 84 0;
#X connect 139 0 172 0;
#X connect 141 0 140 1;
#X connect 143 0 142 1;
#X connect 145 0 144 1;
#X connect 147 0 146 1;
#X connect 149 0 148 1;
#X connect 151 0 150 1;
#X connect 153 0 152 1;
#X connect 155 0 213 0;
#X connect 155 0 141 0;
#X connect 155 0 164 0;
#X connect 155 1 214 0;
#X connect 155 1 143 0;
#X connect 155 1 165 0;
#X connect 156 0 155 0;
#X connect 157 0 215 0;
#X connect 157 0 145 0;
#X connect 157 0 166 0;
#X connect 157 1 216 0;
#X connect 157 1 147 0;
#X connect 157 1 167 0;
#X connect 158 0 157 0;
#X connect 159 0 225 0;
#X connect 159 0 149 0;
#X connect 159 0 168 0;
#X connect 159 1 226 0;
#X connect 159 1 151 0;
#X connect 159 1 169 0;
#X connect 160 0 159 0;
#X connect 161 0 227 0;
#X connect 161 0 153 0;
#X connect 161 0 170 0;
#X connect 161 1 228 0;
#X connect 161 1 163 0;
#X connect 161 1 171 0;
#X connect 162 0 161 0;
#X connect 164 0 3 0;
#X connect 165 0 3 0;
#X connect 166 0 3 0;
#X connect 167 0 3 0;
#X connect 168 0 3 0;
#X connect 169 0 3 0;
#X connect 170 0 3 0;
#X connect 171 0 3 0;
#X connect 172 0 99 0;
#X connect 172 1 101 0;
#X connect 172 2 103 0;
#X connect 172 3 105 0;
#X connect 172 4 107 0;
#X connect 172 5 109 0;
#X connect 172 6 111 0;
#X connect 172 7 113 0;
#X connect 172 8 115 0;
#X connect 172 9 117 0;
#X connect 172 10 119 0;
#X connect 172 11 121 0;
#X connect 172 12 156 0;
#X connect 172 13 158 0;
#X connect 172 14 160 0;
#X connect 172 15 162 0;
#X connect 178 0 172 0;
#X connect 179 0 196 0;
#X connect 179 1 196 0;
#X connect 180 0 197 0;
#X connect 180 1 197 0;
#X connect 181 0 198 0;
#X connect 181 1 198 0;
#X connect 184 0 187 0;
#X connect 187 0 188 0;
#X connect 188 0 179 0;
#X connect 188 0 181 0;
#X connect 188 0 200 0;
#X connect 188 0 180 0;
#X connect 188 0 201 0;
#X connect 191 0 139 0;
#X connect 199 0 280 0;
#X connect 200 0 195 0;
#X connect 200 1 195 0;
#X connect 201 0 194 0;
#X connect 201 1 194 0;
#X connect 202 0 203 0;
#X connect 202 1 203 0;
#X connect 203 0 178 0;
#X connect 204 0 172 0;
#X connect 205 0 172 0;
#X connect 206 0 204 0;
#X connect 207 0 281 0;
#X connect 208 0 209 0;
#X connect 208 1 209 0;
#X connect 209 0 205 0;
#X connect 210 0 279 0;
#X connect 211 0 313 3;
#X connect 212 0 313 0;
#X connect 213 0 140 0;
#X connect 214 0 142 0;
#X connect 214 0 212 0;
#X connect 215 0 144 0;
#X connect 216 0 146 0;
#X connect 216 0 212 0;
#X connect 225 0 148 0;
#X connect 226 0 150 0;
#X connect 226 0 212 0;
#X connect 227 0 152 0;
#X connect 228 0 154 0;
#X connect 228 0 212 0;
#X connect 229 0 0 0;
#X connect 230 0 232 0;
#X connect 231 0 230 0;
#X connect 231 1 230 0;
#X connect 232 0 172 0;
#X connect 233 0 237 0;
#X connect 234 0 235 0;
#X connect 235 0 172 0;
#X connect 236 0 238 0;
#X connect 237 0 172 0;
#X connect 238 0 172 0;
#X connect 239 0 191 0;
#X connect 239 1 191 0;
#X connect 240 0 199 0;
#X connect 240 1 199 0;
#X connect 241 0 206 0;
#X connect 241 1 206 0;
#X connect 242 0 207 0;
#X connect 242 1 207 0;
#X connect 243 0 233 0;
#X connect 243 1 233 0;
#X connect 244 0 234 0;
#X connect 244 1 234 0;
#X connect 245 0 236 0;
#X connect 245 1 236 0;
#X connect 248 0 253 0;
#X connect 249 0 248 0;
#X connect 249 1 248 0;
#X connect 250 0 254 0;
#X connect 251 0 250 0;
#X connect 251 1 250 0;
#X connect 252 0 255 0;
#X connect 253 0 172 0;
#X connect 254 0 172 0;
#X connect 255 0 172 0;
#X connect 256 0 265 0;
#X connect 257 0 282 0;
#X connect 258 0 283 0;
#X connect 259 0 284 0;
#X connect 260 0 256 0;
#X connect 260 1 256 0;
#X connect 261 0 257 0;
#X connect 261 1 257 0;
#X connect 262 0 252 0;
#X connect 262 1 252 0;
#X connect 263 0 258 0;
#X connect 263 1 258 0;
#X connect 264 0 259 0;
#X connect 264 1 259 0;
#X connect 265 0 172 0;
#X connect 266 0 285 0;
#X connect 267 0 266 0;
#X connect 267 1 266 0;
#X connect 268 0 286 0;
#X connect 269 0 287 0;
#X connect 270 0 288 0;
#X connect 271 0 276 0;
#X connect 272 0 268 0;
#X connect 272 1 268 0;
#X connect 273 0 269 0;
#X connect 273 1 269 0;
#X connect 274 0 270 0;
#X connect 274 1 270 0;
#X connect 275 0 271 0;
#X connect 275 1 271 0;
#X connect 276 0 172 0;
#X connect 277 0 289 0;
#X connect 278 0 277 0;
#X connect 278 1 277 0;
#X connect 279 0 290 0;
#X connect 279 1 291 0;
#X connect 279 2 292 0;
#X connect 279 3 293 0;
#X connect 279 4 294 0;
#X connect 279 5 295 0;
#X connect 279 6 296 0;
#X connect 279 7 297 0;
#X connect 279 8 298 0;
#X connect 279 9 299 0;
#X connect 279 10 300 0;
#X connect 279 11 301 0;
#X connect 279 12 302 0;
#X connect 279 13 303 0;
#X connect 279 14 304 0;
#X connect 279 15 305 0;
#X connect 279 16 306 0;
#X connect 279 17 307 0;
#X connect 279 18 308 0;
#X connect 279 19 309 0;
#X connect 279 20 310 0;
#X connect 279 21 311 0;
#X connect 279 22 312 0;
#X connect 280 0 172 0;
#X connect 281 0 172 0;
#X connect 282 0 172 0;
#X connect 283 0 172 0;
#X connect 284 0 172 0;
#X connect 285 0 172 0;
#X connect 286 0 172 0;
#X connect 287 0 172 0;
#X connect 288 0 172 0;
#X connect 289 0 172 0;
#X connect 290 0 239 0;
#X connect 291 0 240 0;
#X connect 292 0 202 0;
#X connect 293 0 241 0;
#X connect 294 0 242 0;
#X connect 295 0 208 0;
#X connect 296 0 231 0;
#X connect 297 0 243 0;
#X connect 298 0 244 0;
#X connect 299 0 245 0;
#X connect 300 0 249 0;
#X connect 301 0 251 0;
#X connect 302 0 262 0;
#X connect 303 0 260 0;
#X connect 304 0 261 0;
#X connect 305 0 263 0;
#X connect 306 0 264 0;
#X connect 307 0 267 0;
#X connect 308 0 272 0;
#X connect 309 0 273 0;
#X connect 310 0 274 0;
#X connect 311 0 275 0;
#X connect 312 0 278 0;
#X connect 313 0 210 0;
