#N canvas -8 -8 1366 725 12;
#X obj 239 46 inlet;
#X obj 239 79 i;
#X msg 175 88 60000;
#X floatatom 239 116 5 0 0 0 - - -;
#X obj 175 134 /;
#X obj 175 65 bng 15 250 50 0 empty empty empty 17 7 0 10 -262144 -1
-1;
#X obj 175 160 i;
#X obj 175 189 / 2;
#X obj 175 217 i;
#X obj 175 286 metro;
#X obj 175 329 bng 15 250 50 0 empty empty empty 17 7 0 10 -262144
-1 -1;
#X floatatom 175 411 5 0 0 0 - - -;
#X obj 175 368 counter;
#X obj 175 504 outlet;
#X obj 198 481 outlet;
#X msg 281 397 0;
#X floatatom 175 250 5 0 0 0 - - -;
#X text 6 -12 Santiago Florian Bustamante;
#X obj 175 453 sel 1 0;
#X connect 0 0 1 0;
#X connect 0 0 5 0;
#X connect 1 0 3 0;
#X connect 2 0 4 0;
#X connect 3 0 4 1;
#X connect 4 0 6 0;
#X connect 5 0 2 0;
#X connect 6 0 7 0;
#X connect 7 0 8 0;
#X connect 8 0 16 0;
#X connect 9 0 10 0;
#X connect 10 0 12 0;
#X connect 11 0 18 0;
#X connect 12 0 11 0;
#X connect 15 0 12 3;
#X connect 15 0 9 0;
#X connect 16 0 9 0;
#X connect 16 0 9 1;
#X connect 18 0 13 0;
#X connect 18 1 14 0;
#X connect 18 2 15 0;
