#N canvas -8 -8 1366 725 12;
#X obj 239 46 inlet;
#X obj 239 79 i;
#X msg 175 88 60000;
#X floatatom 239 116 5 0 0 0 - - -;
#X obj 175 134 /;
#X floatatom 175 186 5 0 0 0 - - -;
#X obj 175 65 bng 15 250 50 0 empty empty empty 17 7 0 10 -262144 -1
-1;
#X obj 175 160 i;
#X text 183 14 Figura SemiCorchea;
#X obj 175 209 / 4;
#X obj 175 237 i;
#X obj 175 263 metro;
#X text 6 -12 Santiago Florian Bustamante;
#X obj 175 306 bng 15 250 50 0 empty empty empty 17 7 0 10 -262144
-1 -1;
#X floatatom 175 388 5 0 0 0 - - -;
#X obj 175 345 counter;
#X obj 175 481 outlet;
#X obj 198 460 outlet;
#X msg 281 374 0;
#X obj 175 430 sel 1 0;
#X floatatom 234 256 5 0 0 0 - - -;
#X connect 0 0 1 0;
#X connect 0 0 6 0;
#X connect 1 0 3 0;
#X connect 2 0 4 0;
#X connect 3 0 4 1;
#X connect 4 0 7 0;
#X connect 5 0 9 0;
#X connect 6 0 2 0;
#X connect 7 0 5 0;
#X connect 9 0 10 0;
#X connect 10 0 11 0;
#X connect 10 0 20 0;
#X connect 10 0 11 1;
#X connect 11 0 13 0;
#X connect 13 0 15 0;
#X connect 14 0 19 0;
#X connect 15 0 14 0;
#X connect 18 0 11 0;
#X connect 18 0 15 3;
#X connect 19 0 16 0;
#X connect 19 1 17 0;
#X connect 19 2 18 0;
